<?xml version="1.0" standalone="no"?>
<!DOCTYPE svg PUBLIC "-//W3C//DTD SVG 20010904//EN"
 "http://www.w3.org/TR/2001/REC-SVG-20010904/DTD/svg10.dtd">
<svg version="1.0" xmlns="http://www.w3.org/2000/svg"
 width="300.000000pt" height="300.000000pt" viewBox="0 0 300.000000 300.000000"
 preserveAspectRatio="xMidYMid meet">
<metadata>
Created by potrace 1.14, written by Peter Selinger 2001-2017
</metadata>
<g transform="translate(0.000000,300.000000) scale(0.100000,-0.100000)"
fill="#000000" stroke="none">
<path d="M1447 2954 c-1 -1 -40 -4 -87 -8 -47 -4 -112 -13 -145 -20 -33 -8
-63 -12 -67 -10 -3 2 -10 -1 -13 -7 -4 -5 -13 -8 -21 -5 -8 3 -14 2 -14 -2 0
-4 -8 -8 -17 -9 -10 -1 -31 -7 -48 -13 -16 -6 -30 -10 -31 -8 0 2 -8 -3 -17
-11 -10 -7 -17 -10 -17 -6 0 4 -10 1 -22 -7 -13 -8 -44 -23 -70 -33 -27 -10
-48 -22 -48 -27 0 -5 -4 -7 -9 -4 -5 3 -20 -3 -34 -14 -14 -11 -29 -20 -33
-20 -4 0 -22 -11 -41 -26 -18 -14 -33 -21 -33 -17 0 4 -5 0 -11 -9 -5 -10 -17
-18 -24 -18 -8 0 -15 -4 -15 -8 0 -5 -19 -22 -42 -39 -51 -37 -188 -171 -188
-185 0 -5 -5 -6 -10 -3 -9 5 -11 1 -10 -20 0 -3 -10 -16 -23 -28 -14 -12 -41
-49 -62 -82 -22 -33 -45 -66 -52 -73 -7 -8 -11 -17 -8 -22 3 -5 1 -11 -4 -14
-12 -8 -78 -146 -87 -181 -3 -14 -9 -25 -13 -25 -4 0 -8 -9 -9 -20 -4 -42 -6
-50 -12 -50 -4 0 -7 -6 -8 -12 0 -7 -10 -56 -22 -108 -11 -52 -23 -122 -26
-155 -3 -33 -8 -63 -10 -67 -2 -3 2 -9 8 -11 7 -3 8 -6 3 -6 -6 -1 -9 -33 -8
-83 3 -84 10 -183 13 -183 1 0 3 -16 5 -35 4 -40 9 -64 22 -100 5 -14 9 -32 8
-40 -1 -8 2 -20 7 -26 4 -6 9 -19 11 -30 2 -10 9 -30 14 -44 6 -14 9 -28 6
-33 -2 -4 0 -7 5 -7 5 0 9 -6 9 -12 0 -26 100 -219 116 -226 4 -2 5 -8 1 -13
-3 -5 -1 -9 3 -9 5 0 17 -16 27 -35 11 -19 23 -35 28 -35 4 0 8 -5 8 -10 0
-16 84 -118 98 -119 6 -1 12 -5 12 -10 0 -10 98 -111 109 -111 3 0 17 -12 30
-26 13 -14 37 -32 53 -40 15 -8 28 -18 28 -22 0 -5 16 -16 35 -25 19 -9 35
-22 35 -27 0 -6 4 -9 9 -5 5 3 17 -2 25 -11 9 -8 16 -13 16 -10 0 3 21 -7 48
-22 56 -33 170 -81 232 -97 3 -1 12 -5 20 -8 8 -4 26 -9 40 -11 14 -3 53 -11
88 -19 34 -7 62 -11 62 -8 0 3 5 -1 10 -9 5 -8 10 -10 10 -4 0 8 11 9 35 4 19
-4 35 -6 35 -4 0 3 8 0 18 -5 13 -7 23 -6 30 1 7 7 12 8 12 2 0 -5 29 -9 65
-9 36 -1 65 2 65 5 0 3 26 5 58 6 61 1 149 11 160 18 7 4 78 18 100 19 6 0 12
4 12 9 0 5 4 7 8 4 10 -6 119 32 170 58 18 9 34 16 37 16 10 -1 109 52 165 87
88 56 211 152 252 198 5 6 34 37 64 70 31 33 69 81 86 108 17 26 35 47 40 47
5 0 6 5 3 10 -3 6 -1 10 4 10 6 0 11 6 11 14 0 8 6 21 13 28 8 7 31 49 53 93
21 44 42 82 47 83 4 2 5 7 2 12 -3 4 2 21 10 36 8 16 15 36 15 45 0 9 3 19 7
23 4 3 8 12 9 19 1 7 9 35 17 64 8 28 13 54 10 57 -4 3 -2 6 3 6 5 0 9 10 10
23 1 12 4 42 8 67 15 96 22 292 12 347 -2 10 -7 45 -11 78 -3 32 -9 63 -12 68
-3 5 -6 21 -8 35 -4 40 -14 78 -27 109 -6 16 -12 33 -13 38 -4 27 -18 65 -24
65 -4 0 -8 6 -8 13 -1 17 -7 41 -13 47 -7 7 -44 83 -44 92 -1 4 -7 13 -13 20
-7 6 -13 16 -13 20 0 13 -101 161 -123 181 -11 9 -17 17 -13 17 4 0 -9 16 -29
37 -19 20 -35 40 -35 45 0 5 -4 7 -8 4 -5 -3 -15 6 -22 19 -7 14 -16 25 -20
25 -4 0 -27 19 -52 43 -58 53 -88 78 -88 72 0 -2 -12 7 -26 20 -14 13 -39 30
-55 37 -16 7 -29 16 -29 20 0 5 -6 8 -14 8 -8 0 -16 3 -18 8 -3 7 -137 76
-150 77 -3 0 -10 3 -14 8 -4 4 -16 7 -26 7 -10 0 -18 5 -18 12 0 6 -3 8 -7 5
-3 -4 -12 -2 -20 4 -7 6 -13 9 -13 6 0 -3 -16 1 -35 9 -19 8 -35 12 -35 10 0
-3 -15 1 -32 8 -18 8 -41 12 -50 11 -10 -2 -18 0 -18 5 0 4 -24 10 -52 13 -29
4 -71 9 -93 12 -36 6 -204 12 -208 9z"/>
</g>
</svg>
